<?xml version="1.0" standalone="no"?>
<!DOCTYPE svg PUBLIC "-//W3C//DTD SVG 20010904//EN"
 "http://www.w3.org/TR/2001/REC-SVG-20010904/DTD/svg10.dtd">
<svg version="1.0" xmlns="http://www.w3.org/2000/svg"
 width="20px" height="20px" viewBox="0 0 512.000000 512.000000"
 preserveAspectRatio="xMidYMid meet">
<metadata>
Created by potrace 1.16, written by Peter Selinger 2001-2019
</metadata>
<g transform="translate(0.000000,512.000000) scale(0.100000,-0.100000)"
fill="#ffffff" stroke="none">
<path d="M2240 5105 c-389 -48 -766 -188 -1091 -404 -504 -335 -871 -825
-1043 -1395 -41 -132 -81 -333 -96 -468 -13 -125 -13 -431 0 -556 108 -1014
825 -1880 1804 -2176 132 -41 333 -81 468 -96 125 -13 431 -13 556 0 592 63
1141 332 1563 766 289 299 494 645 613 1038 74 243 106 468 106 746 0 209 -10
324 -46 505 -181 920 -867 1676 -1768 1949 -132 41 -333 81 -468 96 -131 14
-469 11 -598 -5z m630 -440 c457 -70 860 -274 1190 -605 333 -332 534 -730
607 -1200 24 -157 24 -443 0 -600 -73 -470 -274 -868 -607 -1200 -332 -333
-730 -534 -1200 -607 -157 -24 -443 -24 -600 0 -470 73 -868 274 -1200 607
-333 332 -534 730 -607 1200 -24 157 -24 443 0 600 73 470 274 868 607 1200
368 369 793 566 1345 624 78 8 362 -4 465 -19z"/>
<path d="M2030 3817 c-69 -36 -104 -93 -108 -176 -3 -51 0 -79 14 -107 11 -26
176 -199 483 -506 l466 -468 -466 -467 c-307 -308 -472 -481 -483 -507 -14
-28 -17 -56 -14 -107 4 -83 39 -140 108 -176 38 -21 56 -24 115 -21 59 3 77 8
115 35 65 45 1114 1101 1136 1143 12 23 18 57 18 100 0 43 -6 77 -18 100 -22
42 -1071 1098 -1136 1143 -38 27 -56 32 -115 35 -59 3 -77 0 -115 -21z"/>
</g>
</svg>
